# xmcd
#
# Track frame offsets:
#	150
#	15723
#	31858
#	45166
#	62589
#	88408
#	103898
#	129235
#	150145
#	182606
#	208404
#	230888
#	251108
#	271814
#
# Disc length: 3914 seconds
#
# Revision: 0
# Processed by: cddbd v1.5.2PL0 Copyright (c) Steve Scherf et al.
# Submitted via: EasyCDDAExtractor 11.5.0.1
#
DISCID=b80f480e
DTITLE=Vargas Blues Band - Comes Alive with friends
DYEAR=2008
DGENRE=Blues
TTITLE0=Get away with murder
TTITLE1=Running out of time
TTITLE2=Ya ya ya looking for my baby
TTITLE3=Falling on hard times
TTITLE4=Alma gallega
TTITLE5=Walking the streets
TTITLE6=One way out
TTITLE7=How verso are you
TTITLE8=Man on run
TTITLE9=Down by the river
TTITLE10=Mojo hand
TTITLE11=Break dawn blues
TTITLE12=On the road again
TTITLE13=Sucio y desprolijo
EXTD=
EXTT0=
EXTT1=
EXTT2=
EXTT3=
EXTT4=
EXTT5=
EXTT6=
EXTT7=
EXTT8=
EXTT9=
EXTT10=
EXTT11=
EXTT12=
EXTT13=
PLAYORDER=
